<svg width="20" height="12" viewBox="0 0 20 12" fill="none" xmlns="http://www.w3.org/2000/svg">
<path d="M2 5.39648C2 5.16958 2.0993 4.87813 2.43166 4.52889C2.76892 4.1745 3.30422 3.80985 4.04218 3.48187C5.51558 2.82702 7.62114 2.39648 10 2.39648C12.3789 2.39648 14.4844 2.82702 15.9578 3.48187C16.6958 3.80985 17.2311 4.1745 17.5683 4.52889C17.9007 4.87813 18 5.16958 18 5.39648C18 5.71403 17.792 6.18307 17.0364 6.71383C16.2987 7.23211 15.1846 7.69496 13.7843 8.00423L14.2157 9.95716C15.7789 9.6119 17.1647 9.06792 18.1861 8.35036C19.1898 7.64528 20 6.64948 20 5.39648C20 4.51882 19.5956 3.75799 19.0171 3.15012C18.4435 2.5474 17.6608 2.05012 16.7701 1.65425C14.9861 0.861374 12.5917 0.396484 10 0.396484C7.40829 0.396484 5.01386 0.861374 3.2299 1.65425C2.33918 2.05012 1.55645 2.5474 0.982869 3.15012C0.40438 3.75799 0 4.51882 0 5.39648C0 6.59834 0.74727 7.56486 1.68881 8.26028C2.53772 8.88729 3.65678 9.38561 4.92457 9.74205L4.69626 11.6776L10 9.39648L5.37259 5.94389L5.16224 7.72715C4.19688 7.42872 3.42241 7.05433 2.87704 6.65152C2.18962 6.1438 2 5.7011 2 5.39648Z" fill="#18181B"/>
</svg>
