<svg width="20" height="20" viewBox="0 0 20 20" fill="none" xmlns="http://www.w3.org/2000/svg">
<path d="M8.63629 2.5C7.42265 2.5 6.23626 2.85989 5.22715 3.53415C4.21805 4.20842 3.43154 5.16677 2.9671 6.28803C2.50266 7.4093 2.38114 8.6431 2.61791 9.83342C2.85468 11.0237 3.43911 12.1171 4.29728 12.9753C5.15546 13.8335 6.24884 14.4179 7.43916 14.6547C8.62949 14.8914 9.86329 14.7699 10.9846 14.3055C12.1058 13.841 13.0642 13.0545 13.7384 12.0454C14.4127 11.0363 14.7726 9.84994 14.7726 8.63629C14.7725 7.00888 14.1259 5.44815 12.9752 4.29739C11.8244 3.14664 10.2637 2.5001 8.63629 2.5Z" stroke="#18181B" stroke-width="1.5"/>
<path d="M13.2144 13.2148L17.4999 17.5004" stroke="#18181B" stroke-width="1.5"/>
</svg>
