<svg width="20" height="20" viewBox="0 0 20 20" fill="none" xmlns="http://www.w3.org/2000/svg">
<path d="M4.5 5.5L1 14M4.5 5.5L8 14M4.5 5.5L8.55249 4.39478M1 14C1 15.933 2.567 17.5 4.5 17.5C6.433 17.5 8 15.933 8 14M1 14H8M15.5 2.5L12 11M15.5 2.5L19 11M15.5 2.5L11.4475 3.60522M12 11C12 12.933 13.567 14.5 15.5 14.5C17.433 14.5 19 12.933 19 11M12 11H19M11.4475 3.60522C11.2742 2.96832 10.6918 2.5 10 2.5C9.17157 2.5 8.5 3.17157 8.5 4C8.5 4.13663 8.51827 4.26899 8.55249 4.39478M11.4475 3.60522C11.4817 3.73101 11.5 3.86337 11.5 4C11.5 4.82843 10.8284 5.5 10 5.5C9.3082 5.5 8.72578 5.03168 8.55249 4.39478" stroke="black" stroke-width="1.5"/>
</svg>
