<svg width="330" height="88" viewBox="0 0 330 88" fill="none" xmlns="http://www.w3.org/2000/svg">
<rect width="330" height="88" rx="10" fill="white"/>
<path d="M0 10C0 4.47715 4.47715 0 10 0H20V88H10C4.47715 88 0 83.5229 0 78V10Z" fill="#23252D"/>
<path d="M0 10C0 4.47715 4.47715 0 10 0H20V88H10C4.47715 88 0 83.5229 0 78V10Z" fill="url(#paint0_linear_2252_23126)" fill-opacity="0.3"/>
<path d="M0 10C0 4.47715 4.47715 0 10 0H20V88H10C4.47715 88 0 83.5229 0 78V10Z" fill="url(#paint1_linear_2252_23126)" fill-opacity="0.1"/>
<defs>
<linearGradient id="paint0_linear_2252_23126" x1="22.7127" y1="112.015" x2="-12.7119" y2="102.026" gradientUnits="userSpaceOnUse">
<stop/>
<stop offset="1" stop-color="white"/>
</linearGradient>
<linearGradient id="paint1_linear_2252_23126" x1="10" y1="-6.2171e-07" x2="10" y2="88" gradientUnits="userSpaceOnUse">
<stop offset="0.781998" stop-opacity="0"/>
<stop offset="1"/>
</linearGradient>
</defs>
</svg>
