<svg width="27" height="26" viewBox="0 0 27 26" fill="none" xmlns="http://www.w3.org/2000/svg">
<path d="M13.4375 0C6.25778 0 0.4375 5.82028 0.4375 13C0.4375 20.1797 6.25778 26 13.4375 26C20.6172 26 26.4375 20.1797 26.4375 13C26.4375 5.82028 20.6172 0 13.4375 0ZM19.4632 8.84105C19.2676 10.8967 18.4211 15.8851 17.9902 18.1874C17.808 19.1616 17.4492 19.4883 17.1018 19.5202C16.347 19.5897 15.7736 19.0213 15.0424 18.542C13.8983 17.792 13.2519 17.3251 12.1412 16.5932C10.8577 15.7474 11.6898 15.2827 12.4212 14.5226C12.6127 14.3238 15.939 11.2983 16.0033 11.0238C16.0113 10.9895 16.019 10.8613 15.9428 10.794C15.8666 10.7267 15.7546 10.7495 15.6737 10.7678C15.5589 10.7939 13.7311 12.002 10.1902 14.3922C9.6714 14.7484 9.20147 14.922 8.78041 14.9129C8.31623 14.9029 7.42338 14.6505 6.75959 14.4347C5.94546 14.1701 5.2984 14.0302 5.35475 13.5808C5.3841 13.3466 5.70648 13.1072 6.32189 12.8626C10.1117 11.2115 12.6388 10.1229 13.9032 9.59688C17.5134 8.09523 18.2636 7.83439 18.7526 7.82569C18.8601 7.8239 19.1006 7.85053 19.2563 7.97692C19.3599 8.06695 19.4259 8.19258 19.4414 8.32896C19.4677 8.49831 19.4751 8.67007 19.4632 8.84105Z" fill="white"/>
</svg>
