<svg class="s" width="26" height="25" viewBox="0 0 26 25" fill="none" xmlns="http://www.w3.org/2000/svg">
<path  d="M22.7589 0H3.11607C2.40567 0 1.72436 0.282206 1.22204 0.784535C0.719706 1.28687 0.4375 1.96817 0.4375 2.67857L0.4375 22.3214C0.4375 23.0318 0.719706 23.7131 1.22204 24.2155C1.72436 24.7178 2.40567 25 3.11607 25H10.7751V16.5006H7.25949V12.5H10.7751V9.45089C10.7751 5.9827 12.8398 4.06696 16.0022 4.06696C17.5167 4.06696 19.1004 4.33705 19.1004 4.33705V7.74107H17.3555C15.6362 7.74107 15.0999 8.80804 15.0999 9.90234V12.5H18.9381L18.3242 16.5006H15.0999V25H22.7589C23.4693 25 24.1506 24.7178 24.653 24.2155C25.1553 23.7131 25.4375 23.0318 25.4375 22.3214V2.67857C25.4375 1.96817 25.1553 1.28687 24.653 0.784535C24.1506 0.282206 23.4693 0 22.7589 0Z" fill="white"/>
</svg>
