<svg width="24" height="26" viewBox="0 0 24 26" fill="none" xmlns="http://www.w3.org/2000/svg">
<path d="M23.1867 10.6622C20.9504 10.6675 18.7691 9.97015 16.9507 8.66852V17.7464C16.9501 19.4278 16.4362 21.0688 15.4777 22.4502C14.5192 23.8316 13.1619 24.8874 11.5871 25.4766C10.0124 26.0657 8.2953 26.16 6.66551 25.7469C5.03572 25.3338 3.57088 24.433 2.46687 23.1649C1.36285 21.8969 0.672293 20.3219 0.487518 18.6508C0.302744 16.9796 0.632564 15.2919 1.43288 13.8133C2.23319 12.3346 3.46585 11.1356 4.96603 10.3764C6.46621 9.61725 8.16241 9.33417 9.82782 9.56504V14.1309C9.06572 13.8912 8.24737 13.8984 7.48963 14.1516C6.73188 14.4047 6.0735 14.8908 5.60849 15.5404C5.14349 16.19 4.89564 16.97 4.90034 17.7689C4.90505 18.5677 5.16207 19.3447 5.63469 19.9888C6.10732 20.6329 6.77139 21.1112 7.53206 21.3554C8.29273 21.5996 9.11111 21.5972 9.87033 21.3485C10.6295 21.0998 11.2908 20.6176 11.7596 19.9707C12.2284 19.3238 12.4808 18.5454 12.4808 17.7464V0H16.9507C16.9476 0.377471 16.9792 0.754428 17.0452 1.12611C17.2005 1.95582 17.5234 2.74512 17.9943 3.44574C18.4651 4.14635 19.0739 4.74355 19.7835 5.20081C20.7929 5.86829 21.9765 6.22406 23.1867 6.2238V10.6622Z" fill="white"/>
</svg>
