<svg width="30" height="22" viewBox="0 0 30 22" fill="none" xmlns="http://www.w3.org/2000/svg">
<path d="M29.8106 3.30045C29.4656 2.00132 28.449 0.978166 27.1583 0.630944C24.8188 0 15.4375 0 15.4375 0C15.4375 0 6.05629 0 3.71669 0.630944C2.42597 0.978221 1.4094 2.00132 1.06438 3.30045C0.4375 5.65521 0.4375 10.5682 0.4375 10.5682C0.4375 10.5682 0.4375 15.4811 1.06438 17.8359C1.4094 19.135 2.42597 20.1156 3.71669 20.4628C6.05629 21.0937 15.4375 21.0937 15.4375 21.0937C15.4375 21.0937 24.8187 21.0937 27.1583 20.4628C28.449 20.1156 29.4656 19.135 29.8106 17.8359C30.4375 15.4811 30.4375 10.5682 30.4375 10.5682C30.4375 10.5682 30.4375 5.65521 29.8106 3.30045ZM12.3693 15.0288V6.10757L20.2102 10.5683L12.3693 15.0288Z" fill="white"/>
</svg>
