<svg width="30" height="30" viewBox="0 0 30 30" fill="none" xmlns="http://www.w3.org/2000/svg">
<path d="M24.7589 2H5.11607C4.40567 2 3.72436 2.28221 3.22204 2.78454C2.71971 3.28687 2.4375 3.96817 2.4375 4.67857L2.4375 24.3214C2.4375 25.0318 2.71971 25.7131 3.22204 26.2155C3.72436 26.7178 4.40567 27 5.11607 27H12.7751V18.5006H9.25949V14.5H12.7751V11.4509C12.7751 7.9827 14.8398 6.06696 18.0022 6.06696C19.5167 6.06696 21.1004 6.33705 21.1004 6.33705V9.74107H19.3555C17.6362 9.74107 17.0999 10.808 17.0999 11.9023V14.5H20.9381L20.3242 18.5006H17.0999V27H24.7589C25.4693 27 26.1506 26.7178 26.653 26.2155C27.1553 25.7131 27.4375 25.0318 27.4375 24.3214V4.67857C27.4375 3.96817 27.1553 3.28687 26.653 2.78454C26.1506 2.28221 25.4693 2 24.7589 2Z" fill="#F6D375"/>
</svg>
