<svg width="30" height="30" viewBox="0 0 30 30" fill="none" xmlns="http://www.w3.org/2000/svg">
<path d="M14.9375 11.5234C14.3488 11.5237 13.7735 11.6984 13.2841 12.0256C12.7948 12.3528 12.4134 12.8178 12.1883 13.3617C11.9632 13.9056 11.9044 14.5041 12.0194 15.0814C12.1344 15.6587 12.4179 16.189 12.8343 16.6051C13.2506 17.0213 13.781 17.3047 14.3583 17.4195C14.9357 17.5342 15.5341 17.4752 16.078 17.2499C16.6218 17.0246 17.0866 16.643 17.4136 16.1536C17.7406 15.6641 17.9152 15.0887 17.9152 14.5C17.9146 13.7106 17.6006 12.9536 17.0423 12.3955C16.484 11.8374 15.7269 11.5237 14.9375 11.5234ZM21.8968 9.23549C21.7452 8.85147 21.5164 8.50269 21.2245 8.21077C20.9326 7.91886 20.5838 7.69004 20.1998 7.5385C19.0279 7.07589 16.2377 7.17969 14.9375 7.17969C13.6373 7.17969 10.8499 7.07199 9.67467 7.5385C9.29065 7.69004 8.94186 7.91886 8.64995 8.21077C8.35803 8.50269 8.12921 8.85147 7.97768 9.23549C7.51562 10.4074 7.61886 13.2003 7.61886 14.4994C7.61886 15.7985 7.51562 18.5882 7.97991 19.764C8.13144 20.148 8.36026 20.4968 8.65218 20.7887C8.9441 21.0806 9.29288 21.3094 9.6769 21.4609C10.8488 21.9235 13.639 21.8198 14.9397 21.8198C16.2405 21.8198 19.0268 21.9275 20.202 21.4609C20.586 21.3094 20.9348 21.0806 21.2267 20.7887C21.5186 20.4968 21.7475 20.148 21.899 19.764C22.365 18.5921 22.2578 15.7991 22.2578 14.5C22.2578 13.2009 22.365 10.4118 21.899 9.23605L21.8968 9.23549ZM14.9375 19.0759C14.0325 19.0759 13.1478 18.8075 12.3953 18.3047C11.6428 17.8019 11.0563 17.0873 10.7099 16.2511C10.3636 15.415 10.273 14.4949 10.4495 13.6073C10.6261 12.7197 11.0619 11.9043 11.7019 11.2644C12.3418 10.6244 13.1572 10.1886 14.0448 10.012C14.9324 9.83547 15.8525 9.92609 16.6886 10.2724C17.5248 10.6188 18.2394 11.2053 18.7422 11.9578C19.245 12.7103 19.5134 13.595 19.5134 14.5C19.5141 15.1011 19.3963 15.6965 19.1666 16.252C18.9369 16.8075 18.5998 17.3122 18.1748 17.7373C17.7497 18.1623 17.245 18.4994 16.6895 18.7291C16.134 18.9588 15.5386 19.0766 14.9375 19.0759ZM19.702 10.8002C19.4907 10.8003 19.2842 10.7378 19.1085 10.6205C18.9327 10.5032 18.7958 10.3364 18.7148 10.1413C18.6339 9.94611 18.6127 9.73134 18.6538 9.52411C18.695 9.31689 18.7967 9.12652 18.946 8.97709C19.0954 8.82766 19.2857 8.72588 19.4929 8.68463C19.7001 8.64337 19.9149 8.66449 20.1101 8.74531C20.3053 8.82614 20.4721 8.96303 20.5895 9.13869C20.7069 9.31435 20.7695 9.52087 20.7695 9.73214C20.7701 9.87244 20.743 10.0115 20.6897 10.1413C20.6365 10.2711 20.5581 10.3891 20.4591 10.4885C20.3602 10.5879 20.2425 10.6669 20.113 10.7207C19.9834 10.7746 19.8445 10.8024 19.7042 10.8025L19.702 10.8002ZM24.7589 2H5.11607C4.40567 2 3.72436 2.28221 3.22204 2.78454C2.71971 3.28687 2.4375 3.96817 2.4375 4.67857L2.4375 24.3214C2.4375 25.0318 2.71971 25.7131 3.22204 26.2155C3.72436 26.7178 4.40567 27 5.11607 27H24.7589C25.4693 27 26.1506 26.7178 26.653 26.2155C27.1553 25.7131 27.4375 25.0318 27.4375 24.3214V4.67857C27.4375 3.96817 27.1553 3.28687 26.653 2.78454C26.1506 2.28221 25.4693 2 24.7589 2ZM23.8036 18.183C23.7316 19.6133 23.4051 20.8806 22.361 21.9219C21.317 22.9632 20.0508 23.2963 18.6222 23.3644C17.1484 23.4475 12.7299 23.4475 11.2561 23.3644C9.82589 23.2924 8.56306 22.9654 7.5173 21.9219C6.47154 20.8783 6.14286 19.6105 6.07478 18.183C5.99163 16.7087 5.99163 12.2896 6.07478 10.817C6.14676 9.38672 6.46931 8.11942 7.5173 7.07812C8.56529 6.03683 9.83147 5.70759 11.2561 5.63951C12.7299 5.55636 17.1484 5.55636 18.6222 5.63951C20.0525 5.7115 21.3192 6.0385 22.361 7.08203C23.4029 8.12556 23.7355 9.39341 23.8036 10.8237C23.8867 12.2924 23.8867 16.7076 23.8036 18.183Z" fill="white"/>
</svg>
